<mxfile host="app.diagrams.net" agent="Mozilla/5.0 (Windows NT 10.0; Win64; x64) AppleWebKit/537.36 (KHTML, like Gecko) Chrome/130.0.0.0 Safari/537.36" version="24.8.3">
  <diagram name="Page-1" id="zK0f9T1UBb3IhC8DN31x">
    <mxGraphModel dx="2049" dy="1054" grid="1" gridSize="10" guides="1" tooltips="1" connect="1" arrows="1" fold="1" page="1" pageScale="1" pageWidth="1600" pageHeight="900" math="0" shadow="0">
      <root>
        <mxCell id="0" />
        <mxCell id="1" parent="0" />
        <mxCell id="0qVfjFNWCCE-ld6SsN1t-15" style="edgeStyle=orthogonalEdgeStyle;rounded=0;orthogonalLoop=1;jettySize=auto;html=1;exitX=0.5;exitY=0;exitDx=0;exitDy=0;exitPerimeter=0;" edge="1" parent="1" source="0qVfjFNWCCE-ld6SsN1t-1" target="0qVfjFNWCCE-ld6SsN1t-3">
          <mxGeometry relative="1" as="geometry" />
        </mxCell>
        <mxCell id="0qVfjFNWCCE-ld6SsN1t-30" style="edgeStyle=orthogonalEdgeStyle;rounded=0;orthogonalLoop=1;jettySize=auto;html=1;exitX=0;exitY=0;exitDx=0;exitDy=27.5;exitPerimeter=0;entryX=0.75;entryY=0;entryDx=0;entryDy=0;" edge="1" parent="1" source="0qVfjFNWCCE-ld6SsN1t-1" target="0qVfjFNWCCE-ld6SsN1t-16">
          <mxGeometry relative="1" as="geometry" />
        </mxCell>
        <mxCell id="0qVfjFNWCCE-ld6SsN1t-1" value="DataBase" style="shape=cylinder3;whiteSpace=wrap;html=1;boundedLbl=1;backgroundOutline=1;size=15;" vertex="1" parent="1">
          <mxGeometry x="1521.5" y="410" width="60" height="80" as="geometry" />
        </mxCell>
        <mxCell id="0qVfjFNWCCE-ld6SsN1t-70" value="" style="edgeStyle=orthogonalEdgeStyle;rounded=0;orthogonalLoop=1;jettySize=auto;html=1;" edge="1" parent="1" source="0qVfjFNWCCE-ld6SsN1t-2" target="0qVfjFNWCCE-ld6SsN1t-69">
          <mxGeometry relative="1" as="geometry" />
        </mxCell>
        <mxCell id="0qVfjFNWCCE-ld6SsN1t-2" value="ai_demo_dashboard" style="shape=table;startSize=30;container=1;collapsible=0;childLayout=tableLayout;strokeColor=default;fontSize=16;" vertex="1" parent="1">
          <mxGeometry x="1371.5" y="320" width="68.5" height="80" as="geometry" />
        </mxCell>
        <mxCell id="0qVfjFNWCCE-ld6SsN1t-3" value="" style="shape=tableRow;horizontal=0;startSize=0;swimlaneHead=0;swimlaneBody=0;strokeColor=inherit;top=0;left=0;bottom=0;right=0;collapsible=0;dropTarget=0;fillColor=none;points=[[0,0.5],[1,0.5]];portConstraint=eastwest;fontSize=16;" vertex="1" parent="0qVfjFNWCCE-ld6SsN1t-2">
          <mxGeometry y="30" width="68.5" height="16" as="geometry" />
        </mxCell>
        <mxCell id="0qVfjFNWCCE-ld6SsN1t-4" value="" style="shape=partialRectangle;html=1;whiteSpace=wrap;connectable=0;strokeColor=inherit;overflow=hidden;fillColor=none;top=0;left=0;bottom=0;right=0;pointerEvents=1;fontSize=16;" vertex="1" parent="0qVfjFNWCCE-ld6SsN1t-3">
          <mxGeometry width="23" height="16" as="geometry">
            <mxRectangle width="23" height="16" as="alternateBounds" />
          </mxGeometry>
        </mxCell>
        <mxCell id="0qVfjFNWCCE-ld6SsN1t-5" value="" style="shape=partialRectangle;html=1;whiteSpace=wrap;connectable=0;strokeColor=inherit;overflow=hidden;fillColor=none;top=0;left=0;bottom=0;right=0;pointerEvents=1;fontSize=16;" vertex="1" parent="0qVfjFNWCCE-ld6SsN1t-3">
          <mxGeometry x="23" width="22" height="16" as="geometry">
            <mxRectangle width="22" height="16" as="alternateBounds" />
          </mxGeometry>
        </mxCell>
        <mxCell id="0qVfjFNWCCE-ld6SsN1t-6" value="" style="shape=partialRectangle;html=1;whiteSpace=wrap;connectable=0;strokeColor=inherit;overflow=hidden;fillColor=none;top=0;left=0;bottom=0;right=0;pointerEvents=1;fontSize=16;" vertex="1" parent="0qVfjFNWCCE-ld6SsN1t-3">
          <mxGeometry x="45" width="24" height="16" as="geometry">
            <mxRectangle width="24" height="16" as="alternateBounds" />
          </mxGeometry>
        </mxCell>
        <mxCell id="0qVfjFNWCCE-ld6SsN1t-7" value="" style="shape=tableRow;horizontal=0;startSize=0;swimlaneHead=0;swimlaneBody=0;strokeColor=inherit;top=0;left=0;bottom=0;right=0;collapsible=0;dropTarget=0;fillColor=none;points=[[0,0.5],[1,0.5]];portConstraint=eastwest;fontSize=16;" vertex="1" parent="0qVfjFNWCCE-ld6SsN1t-2">
          <mxGeometry y="46" width="68.5" height="18" as="geometry" />
        </mxCell>
        <mxCell id="0qVfjFNWCCE-ld6SsN1t-8" value="" style="shape=partialRectangle;html=1;whiteSpace=wrap;connectable=0;strokeColor=inherit;overflow=hidden;fillColor=none;top=0;left=0;bottom=0;right=0;pointerEvents=1;fontSize=16;" vertex="1" parent="0qVfjFNWCCE-ld6SsN1t-7">
          <mxGeometry width="23" height="18" as="geometry">
            <mxRectangle width="23" height="18" as="alternateBounds" />
          </mxGeometry>
        </mxCell>
        <mxCell id="0qVfjFNWCCE-ld6SsN1t-9" value="" style="shape=partialRectangle;html=1;whiteSpace=wrap;connectable=0;strokeColor=inherit;overflow=hidden;fillColor=none;top=0;left=0;bottom=0;right=0;pointerEvents=1;fontSize=16;" vertex="1" parent="0qVfjFNWCCE-ld6SsN1t-7">
          <mxGeometry x="23" width="22" height="18" as="geometry">
            <mxRectangle width="22" height="18" as="alternateBounds" />
          </mxGeometry>
        </mxCell>
        <mxCell id="0qVfjFNWCCE-ld6SsN1t-10" value="" style="shape=partialRectangle;html=1;whiteSpace=wrap;connectable=0;strokeColor=inherit;overflow=hidden;fillColor=none;top=0;left=0;bottom=0;right=0;pointerEvents=1;fontSize=16;" vertex="1" parent="0qVfjFNWCCE-ld6SsN1t-7">
          <mxGeometry x="45" width="24" height="18" as="geometry">
            <mxRectangle width="24" height="18" as="alternateBounds" />
          </mxGeometry>
        </mxCell>
        <mxCell id="0qVfjFNWCCE-ld6SsN1t-11" value="" style="shape=tableRow;horizontal=0;startSize=0;swimlaneHead=0;swimlaneBody=0;strokeColor=inherit;top=0;left=0;bottom=0;right=0;collapsible=0;dropTarget=0;fillColor=none;points=[[0,0.5],[1,0.5]];portConstraint=eastwest;fontSize=16;" vertex="1" parent="0qVfjFNWCCE-ld6SsN1t-2">
          <mxGeometry y="64" width="68.5" height="16" as="geometry" />
        </mxCell>
        <mxCell id="0qVfjFNWCCE-ld6SsN1t-12" value="" style="shape=partialRectangle;html=1;whiteSpace=wrap;connectable=0;strokeColor=inherit;overflow=hidden;fillColor=none;top=0;left=0;bottom=0;right=0;pointerEvents=1;fontSize=16;" vertex="1" parent="0qVfjFNWCCE-ld6SsN1t-11">
          <mxGeometry width="23" height="16" as="geometry">
            <mxRectangle width="23" height="16" as="alternateBounds" />
          </mxGeometry>
        </mxCell>
        <mxCell id="0qVfjFNWCCE-ld6SsN1t-13" value="" style="shape=partialRectangle;html=1;whiteSpace=wrap;connectable=0;strokeColor=inherit;overflow=hidden;fillColor=none;top=0;left=0;bottom=0;right=0;pointerEvents=1;fontSize=16;" vertex="1" parent="0qVfjFNWCCE-ld6SsN1t-11">
          <mxGeometry x="23" width="22" height="16" as="geometry">
            <mxRectangle width="22" height="16" as="alternateBounds" />
          </mxGeometry>
        </mxCell>
        <mxCell id="0qVfjFNWCCE-ld6SsN1t-14" value="" style="shape=partialRectangle;html=1;whiteSpace=wrap;connectable=0;strokeColor=inherit;overflow=hidden;fillColor=none;top=0;left=0;bottom=0;right=0;pointerEvents=1;fontSize=16;" vertex="1" parent="0qVfjFNWCCE-ld6SsN1t-11">
          <mxGeometry x="45" width="24" height="16" as="geometry">
            <mxRectangle width="24" height="16" as="alternateBounds" />
          </mxGeometry>
        </mxCell>
        <mxCell id="0qVfjFNWCCE-ld6SsN1t-44" value="" style="edgeStyle=orthogonalEdgeStyle;rounded=0;orthogonalLoop=1;jettySize=auto;html=1;exitX=0.5;exitY=1;exitDx=0;exitDy=0;exitPerimeter=0;entryX=1;entryY=0.5;entryDx=0;entryDy=0;" edge="1" parent="1" source="0qVfjFNWCCE-ld6SsN1t-1" target="0qVfjFNWCCE-ld6SsN1t-32">
          <mxGeometry relative="1" as="geometry" />
        </mxCell>
        <mxCell id="0qVfjFNWCCE-ld6SsN1t-52" value="" style="edgeStyle=orthogonalEdgeStyle;rounded=0;orthogonalLoop=1;jettySize=auto;html=1;" edge="1" parent="1" source="0qVfjFNWCCE-ld6SsN1t-16" target="0qVfjFNWCCE-ld6SsN1t-51">
          <mxGeometry relative="1" as="geometry" />
        </mxCell>
        <mxCell id="0qVfjFNWCCE-ld6SsN1t-16" value="metadata_premap" style="shape=table;startSize=30;container=1;collapsible=0;childLayout=tableLayout;strokeColor=default;fontSize=16;" vertex="1" parent="1">
          <mxGeometry x="1371.5" y="458" width="68.5" height="82" as="geometry" />
        </mxCell>
        <mxCell id="0qVfjFNWCCE-ld6SsN1t-47" value="" style="shape=tableRow;horizontal=0;startSize=0;swimlaneHead=0;swimlaneBody=0;strokeColor=inherit;top=0;left=0;bottom=0;right=0;collapsible=0;dropTarget=0;fillColor=none;points=[[0,0.5],[1,0.5]];portConstraint=eastwest;fontSize=16;" vertex="1" parent="0qVfjFNWCCE-ld6SsN1t-16">
          <mxGeometry y="30" width="68.5" height="13" as="geometry" />
        </mxCell>
        <mxCell id="0qVfjFNWCCE-ld6SsN1t-48" value="" style="shape=partialRectangle;html=1;whiteSpace=wrap;connectable=0;strokeColor=inherit;overflow=hidden;fillColor=none;top=0;left=0;bottom=0;right=0;pointerEvents=1;fontSize=16;" vertex="1" parent="0qVfjFNWCCE-ld6SsN1t-47">
          <mxGeometry width="23" height="13" as="geometry">
            <mxRectangle width="23" height="13" as="alternateBounds" />
          </mxGeometry>
        </mxCell>
        <mxCell id="0qVfjFNWCCE-ld6SsN1t-49" value="" style="shape=partialRectangle;html=1;whiteSpace=wrap;connectable=0;strokeColor=inherit;overflow=hidden;fillColor=none;top=0;left=0;bottom=0;right=0;pointerEvents=1;fontSize=16;" vertex="1" parent="0qVfjFNWCCE-ld6SsN1t-47">
          <mxGeometry x="23" width="22" height="13" as="geometry">
            <mxRectangle width="22" height="13" as="alternateBounds" />
          </mxGeometry>
        </mxCell>
        <mxCell id="0qVfjFNWCCE-ld6SsN1t-50" value="" style="shape=partialRectangle;html=1;whiteSpace=wrap;connectable=0;strokeColor=inherit;overflow=hidden;fillColor=none;top=0;left=0;bottom=0;right=0;pointerEvents=1;fontSize=16;" vertex="1" parent="0qVfjFNWCCE-ld6SsN1t-47">
          <mxGeometry x="45" width="24" height="13" as="geometry">
            <mxRectangle width="24" height="13" as="alternateBounds" />
          </mxGeometry>
        </mxCell>
        <mxCell id="0qVfjFNWCCE-ld6SsN1t-17" value="" style="shape=tableRow;horizontal=0;startSize=0;swimlaneHead=0;swimlaneBody=0;strokeColor=inherit;top=0;left=0;bottom=0;right=0;collapsible=0;dropTarget=0;fillColor=none;points=[[0,0.5],[1,0.5]];portConstraint=eastwest;fontSize=16;" vertex="1" parent="0qVfjFNWCCE-ld6SsN1t-16">
          <mxGeometry y="43" width="68.5" height="12" as="geometry" />
        </mxCell>
        <mxCell id="0qVfjFNWCCE-ld6SsN1t-18" value="" style="shape=partialRectangle;html=1;whiteSpace=wrap;connectable=0;strokeColor=inherit;overflow=hidden;fillColor=none;top=0;left=0;bottom=0;right=0;pointerEvents=1;fontSize=16;" vertex="1" parent="0qVfjFNWCCE-ld6SsN1t-17">
          <mxGeometry width="23" height="12" as="geometry">
            <mxRectangle width="23" height="12" as="alternateBounds" />
          </mxGeometry>
        </mxCell>
        <mxCell id="0qVfjFNWCCE-ld6SsN1t-19" value="" style="shape=partialRectangle;html=1;whiteSpace=wrap;connectable=0;strokeColor=inherit;overflow=hidden;fillColor=none;top=0;left=0;bottom=0;right=0;pointerEvents=1;fontSize=16;" vertex="1" parent="0qVfjFNWCCE-ld6SsN1t-17">
          <mxGeometry x="23" width="22" height="12" as="geometry">
            <mxRectangle width="22" height="12" as="alternateBounds" />
          </mxGeometry>
        </mxCell>
        <mxCell id="0qVfjFNWCCE-ld6SsN1t-20" value="" style="shape=partialRectangle;html=1;whiteSpace=wrap;connectable=0;strokeColor=inherit;overflow=hidden;fillColor=none;top=0;left=0;bottom=0;right=0;pointerEvents=1;fontSize=16;" vertex="1" parent="0qVfjFNWCCE-ld6SsN1t-17">
          <mxGeometry x="45" width="24" height="12" as="geometry">
            <mxRectangle width="24" height="12" as="alternateBounds" />
          </mxGeometry>
        </mxCell>
        <mxCell id="0qVfjFNWCCE-ld6SsN1t-21" value="" style="shape=tableRow;horizontal=0;startSize=0;swimlaneHead=0;swimlaneBody=0;strokeColor=inherit;top=0;left=0;bottom=0;right=0;collapsible=0;dropTarget=0;fillColor=none;points=[[0,0.5],[1,0.5]];portConstraint=eastwest;fontSize=16;" vertex="1" parent="0qVfjFNWCCE-ld6SsN1t-16">
          <mxGeometry y="55" width="68.5" height="14" as="geometry" />
        </mxCell>
        <mxCell id="0qVfjFNWCCE-ld6SsN1t-22" value="" style="shape=partialRectangle;html=1;whiteSpace=wrap;connectable=0;strokeColor=inherit;overflow=hidden;fillColor=none;top=0;left=0;bottom=0;right=0;pointerEvents=1;fontSize=16;" vertex="1" parent="0qVfjFNWCCE-ld6SsN1t-21">
          <mxGeometry width="23" height="14" as="geometry">
            <mxRectangle width="23" height="14" as="alternateBounds" />
          </mxGeometry>
        </mxCell>
        <mxCell id="0qVfjFNWCCE-ld6SsN1t-23" value="" style="shape=partialRectangle;html=1;whiteSpace=wrap;connectable=0;strokeColor=inherit;overflow=hidden;fillColor=none;top=0;left=0;bottom=0;right=0;pointerEvents=1;fontSize=16;" vertex="1" parent="0qVfjFNWCCE-ld6SsN1t-21">
          <mxGeometry x="23" width="22" height="14" as="geometry">
            <mxRectangle width="22" height="14" as="alternateBounds" />
          </mxGeometry>
        </mxCell>
        <mxCell id="0qVfjFNWCCE-ld6SsN1t-24" value="" style="shape=partialRectangle;html=1;whiteSpace=wrap;connectable=0;strokeColor=inherit;overflow=hidden;fillColor=none;top=0;left=0;bottom=0;right=0;pointerEvents=1;fontSize=16;" vertex="1" parent="0qVfjFNWCCE-ld6SsN1t-21">
          <mxGeometry x="45" width="24" height="14" as="geometry">
            <mxRectangle width="24" height="14" as="alternateBounds" />
          </mxGeometry>
        </mxCell>
        <mxCell id="0qVfjFNWCCE-ld6SsN1t-25" value="" style="shape=tableRow;horizontal=0;startSize=0;swimlaneHead=0;swimlaneBody=0;strokeColor=inherit;top=0;left=0;bottom=0;right=0;collapsible=0;dropTarget=0;fillColor=none;points=[[0,0.5],[1,0.5]];portConstraint=eastwest;fontSize=16;" vertex="1" parent="0qVfjFNWCCE-ld6SsN1t-16">
          <mxGeometry y="69" width="68.5" height="13" as="geometry" />
        </mxCell>
        <mxCell id="0qVfjFNWCCE-ld6SsN1t-26" value="" style="shape=partialRectangle;html=1;whiteSpace=wrap;connectable=0;strokeColor=inherit;overflow=hidden;fillColor=none;top=0;left=0;bottom=0;right=0;pointerEvents=1;fontSize=16;" vertex="1" parent="0qVfjFNWCCE-ld6SsN1t-25">
          <mxGeometry width="23" height="13" as="geometry">
            <mxRectangle width="23" height="13" as="alternateBounds" />
          </mxGeometry>
        </mxCell>
        <mxCell id="0qVfjFNWCCE-ld6SsN1t-27" value="" style="shape=partialRectangle;html=1;whiteSpace=wrap;connectable=0;strokeColor=inherit;overflow=hidden;fillColor=none;top=0;left=0;bottom=0;right=0;pointerEvents=1;fontSize=16;" vertex="1" parent="0qVfjFNWCCE-ld6SsN1t-25">
          <mxGeometry x="23" width="22" height="13" as="geometry">
            <mxRectangle width="22" height="13" as="alternateBounds" />
          </mxGeometry>
        </mxCell>
        <mxCell id="0qVfjFNWCCE-ld6SsN1t-28" value="" style="shape=partialRectangle;html=1;whiteSpace=wrap;connectable=0;strokeColor=inherit;overflow=hidden;fillColor=none;top=0;left=0;bottom=0;right=0;pointerEvents=1;fontSize=16;" vertex="1" parent="0qVfjFNWCCE-ld6SsN1t-25">
          <mxGeometry x="45" width="24" height="13" as="geometry">
            <mxRectangle width="24" height="13" as="alternateBounds" />
          </mxGeometry>
        </mxCell>
        <mxCell id="0qVfjFNWCCE-ld6SsN1t-94" value="" style="edgeStyle=orthogonalEdgeStyle;rounded=0;orthogonalLoop=1;jettySize=auto;html=1;" edge="1" parent="1" source="0qVfjFNWCCE-ld6SsN1t-31" target="0qVfjFNWCCE-ld6SsN1t-93">
          <mxGeometry relative="1" as="geometry" />
        </mxCell>
        <mxCell id="0qVfjFNWCCE-ld6SsN1t-31" value="metadata_map" style="shape=table;startSize=30;container=1;collapsible=0;childLayout=tableLayout;strokeColor=default;fontSize=16;" vertex="1" parent="1">
          <mxGeometry x="1371.5" y="602" width="68.5" height="88" as="geometry" />
        </mxCell>
        <mxCell id="0qVfjFNWCCE-ld6SsN1t-32" value="" style="shape=tableRow;horizontal=0;startSize=0;swimlaneHead=0;swimlaneBody=0;strokeColor=inherit;top=0;left=0;bottom=0;right=0;collapsible=0;dropTarget=0;fillColor=none;points=[[0,0.5],[1,0.5]];portConstraint=eastwest;fontSize=16;" vertex="1" parent="0qVfjFNWCCE-ld6SsN1t-31">
          <mxGeometry y="30" width="68.5" height="11" as="geometry" />
        </mxCell>
        <mxCell id="0qVfjFNWCCE-ld6SsN1t-33" value="" style="shape=partialRectangle;html=1;whiteSpace=wrap;connectable=0;strokeColor=inherit;overflow=hidden;fillColor=none;top=0;left=0;bottom=0;right=0;pointerEvents=1;fontSize=16;" vertex="1" parent="0qVfjFNWCCE-ld6SsN1t-32">
          <mxGeometry width="23" height="11" as="geometry">
            <mxRectangle width="23" height="11" as="alternateBounds" />
          </mxGeometry>
        </mxCell>
        <mxCell id="0qVfjFNWCCE-ld6SsN1t-34" value="" style="shape=partialRectangle;html=1;whiteSpace=wrap;connectable=0;strokeColor=inherit;overflow=hidden;fillColor=none;top=0;left=0;bottom=0;right=0;pointerEvents=1;fontSize=16;" vertex="1" parent="0qVfjFNWCCE-ld6SsN1t-32">
          <mxGeometry x="23" width="22" height="11" as="geometry">
            <mxRectangle width="22" height="11" as="alternateBounds" />
          </mxGeometry>
        </mxCell>
        <mxCell id="0qVfjFNWCCE-ld6SsN1t-35" value="" style="shape=partialRectangle;html=1;whiteSpace=wrap;connectable=0;strokeColor=inherit;overflow=hidden;fillColor=none;top=0;left=0;bottom=0;right=0;pointerEvents=1;fontSize=16;" vertex="1" parent="0qVfjFNWCCE-ld6SsN1t-32">
          <mxGeometry x="45" width="24" height="11" as="geometry">
            <mxRectangle width="24" height="11" as="alternateBounds" />
          </mxGeometry>
        </mxCell>
        <mxCell id="0qVfjFNWCCE-ld6SsN1t-89" value="" style="shape=tableRow;horizontal=0;startSize=0;swimlaneHead=0;swimlaneBody=0;strokeColor=inherit;top=0;left=0;bottom=0;right=0;collapsible=0;dropTarget=0;fillColor=none;points=[[0,0.5],[1,0.5]];portConstraint=eastwest;fontSize=16;" vertex="1" parent="0qVfjFNWCCE-ld6SsN1t-31">
          <mxGeometry y="41" width="68.5" height="12" as="geometry" />
        </mxCell>
        <mxCell id="0qVfjFNWCCE-ld6SsN1t-90" value="" style="shape=partialRectangle;html=1;whiteSpace=wrap;connectable=0;strokeColor=inherit;overflow=hidden;fillColor=none;top=0;left=0;bottom=0;right=0;pointerEvents=1;fontSize=16;" vertex="1" parent="0qVfjFNWCCE-ld6SsN1t-89">
          <mxGeometry width="23" height="12" as="geometry">
            <mxRectangle width="23" height="12" as="alternateBounds" />
          </mxGeometry>
        </mxCell>
        <mxCell id="0qVfjFNWCCE-ld6SsN1t-91" value="" style="shape=partialRectangle;html=1;whiteSpace=wrap;connectable=0;strokeColor=inherit;overflow=hidden;fillColor=none;top=0;left=0;bottom=0;right=0;pointerEvents=1;fontSize=16;" vertex="1" parent="0qVfjFNWCCE-ld6SsN1t-89">
          <mxGeometry x="23" width="22" height="12" as="geometry">
            <mxRectangle width="22" height="12" as="alternateBounds" />
          </mxGeometry>
        </mxCell>
        <mxCell id="0qVfjFNWCCE-ld6SsN1t-92" value="" style="shape=partialRectangle;html=1;whiteSpace=wrap;connectable=0;strokeColor=inherit;overflow=hidden;fillColor=none;top=0;left=0;bottom=0;right=0;pointerEvents=1;fontSize=16;" vertex="1" parent="0qVfjFNWCCE-ld6SsN1t-89">
          <mxGeometry x="45" width="24" height="12" as="geometry">
            <mxRectangle width="24" height="12" as="alternateBounds" />
          </mxGeometry>
        </mxCell>
        <mxCell id="0qVfjFNWCCE-ld6SsN1t-85" value="" style="shape=tableRow;horizontal=0;startSize=0;swimlaneHead=0;swimlaneBody=0;strokeColor=inherit;top=0;left=0;bottom=0;right=0;collapsible=0;dropTarget=0;fillColor=none;points=[[0,0.5],[1,0.5]];portConstraint=eastwest;fontSize=16;" vertex="1" parent="0qVfjFNWCCE-ld6SsN1t-31">
          <mxGeometry y="53" width="68.5" height="12" as="geometry" />
        </mxCell>
        <mxCell id="0qVfjFNWCCE-ld6SsN1t-86" value="" style="shape=partialRectangle;html=1;whiteSpace=wrap;connectable=0;strokeColor=inherit;overflow=hidden;fillColor=none;top=0;left=0;bottom=0;right=0;pointerEvents=1;fontSize=16;" vertex="1" parent="0qVfjFNWCCE-ld6SsN1t-85">
          <mxGeometry width="23" height="12" as="geometry">
            <mxRectangle width="23" height="12" as="alternateBounds" />
          </mxGeometry>
        </mxCell>
        <mxCell id="0qVfjFNWCCE-ld6SsN1t-87" value="" style="shape=partialRectangle;html=1;whiteSpace=wrap;connectable=0;strokeColor=inherit;overflow=hidden;fillColor=none;top=0;left=0;bottom=0;right=0;pointerEvents=1;fontSize=16;" vertex="1" parent="0qVfjFNWCCE-ld6SsN1t-85">
          <mxGeometry x="23" width="22" height="12" as="geometry">
            <mxRectangle width="22" height="12" as="alternateBounds" />
          </mxGeometry>
        </mxCell>
        <mxCell id="0qVfjFNWCCE-ld6SsN1t-88" value="" style="shape=partialRectangle;html=1;whiteSpace=wrap;connectable=0;strokeColor=inherit;overflow=hidden;fillColor=none;top=0;left=0;bottom=0;right=0;pointerEvents=1;fontSize=16;" vertex="1" parent="0qVfjFNWCCE-ld6SsN1t-85">
          <mxGeometry x="45" width="24" height="12" as="geometry">
            <mxRectangle width="24" height="12" as="alternateBounds" />
          </mxGeometry>
        </mxCell>
        <mxCell id="0qVfjFNWCCE-ld6SsN1t-36" value="" style="shape=tableRow;horizontal=0;startSize=0;swimlaneHead=0;swimlaneBody=0;strokeColor=inherit;top=0;left=0;bottom=0;right=0;collapsible=0;dropTarget=0;fillColor=none;points=[[0,0.5],[1,0.5]];portConstraint=eastwest;fontSize=16;" vertex="1" parent="0qVfjFNWCCE-ld6SsN1t-31">
          <mxGeometry y="65" width="68.5" height="12" as="geometry" />
        </mxCell>
        <mxCell id="0qVfjFNWCCE-ld6SsN1t-37" value="" style="shape=partialRectangle;html=1;whiteSpace=wrap;connectable=0;strokeColor=inherit;overflow=hidden;fillColor=none;top=0;left=0;bottom=0;right=0;pointerEvents=1;fontSize=16;" vertex="1" parent="0qVfjFNWCCE-ld6SsN1t-36">
          <mxGeometry width="23" height="12" as="geometry">
            <mxRectangle width="23" height="12" as="alternateBounds" />
          </mxGeometry>
        </mxCell>
        <mxCell id="0qVfjFNWCCE-ld6SsN1t-38" value="" style="shape=partialRectangle;html=1;whiteSpace=wrap;connectable=0;strokeColor=inherit;overflow=hidden;fillColor=none;top=0;left=0;bottom=0;right=0;pointerEvents=1;fontSize=16;" vertex="1" parent="0qVfjFNWCCE-ld6SsN1t-36">
          <mxGeometry x="23" width="22" height="12" as="geometry">
            <mxRectangle width="22" height="12" as="alternateBounds" />
          </mxGeometry>
        </mxCell>
        <mxCell id="0qVfjFNWCCE-ld6SsN1t-39" value="" style="shape=partialRectangle;html=1;whiteSpace=wrap;connectable=0;strokeColor=inherit;overflow=hidden;fillColor=none;top=0;left=0;bottom=0;right=0;pointerEvents=1;fontSize=16;" vertex="1" parent="0qVfjFNWCCE-ld6SsN1t-36">
          <mxGeometry x="45" width="24" height="12" as="geometry">
            <mxRectangle width="24" height="12" as="alternateBounds" />
          </mxGeometry>
        </mxCell>
        <mxCell id="0qVfjFNWCCE-ld6SsN1t-40" value="" style="shape=tableRow;horizontal=0;startSize=0;swimlaneHead=0;swimlaneBody=0;strokeColor=inherit;top=0;left=0;bottom=0;right=0;collapsible=0;dropTarget=0;fillColor=none;points=[[0,0.5],[1,0.5]];portConstraint=eastwest;fontSize=16;" vertex="1" parent="0qVfjFNWCCE-ld6SsN1t-31">
          <mxGeometry y="77" width="68.5" height="11" as="geometry" />
        </mxCell>
        <mxCell id="0qVfjFNWCCE-ld6SsN1t-41" value="" style="shape=partialRectangle;html=1;whiteSpace=wrap;connectable=0;strokeColor=inherit;overflow=hidden;fillColor=none;top=0;left=0;bottom=0;right=0;pointerEvents=1;fontSize=16;" vertex="1" parent="0qVfjFNWCCE-ld6SsN1t-40">
          <mxGeometry width="23" height="11" as="geometry">
            <mxRectangle width="23" height="11" as="alternateBounds" />
          </mxGeometry>
        </mxCell>
        <mxCell id="0qVfjFNWCCE-ld6SsN1t-42" value="" style="shape=partialRectangle;html=1;whiteSpace=wrap;connectable=0;strokeColor=inherit;overflow=hidden;fillColor=none;top=0;left=0;bottom=0;right=0;pointerEvents=1;fontSize=16;" vertex="1" parent="0qVfjFNWCCE-ld6SsN1t-40">
          <mxGeometry x="23" width="22" height="11" as="geometry">
            <mxRectangle width="22" height="11" as="alternateBounds" />
          </mxGeometry>
        </mxCell>
        <mxCell id="0qVfjFNWCCE-ld6SsN1t-43" value="" style="shape=partialRectangle;html=1;whiteSpace=wrap;connectable=0;strokeColor=inherit;overflow=hidden;fillColor=none;top=0;left=0;bottom=0;right=0;pointerEvents=1;fontSize=16;" vertex="1" parent="0qVfjFNWCCE-ld6SsN1t-40">
          <mxGeometry x="45" width="24" height="11" as="geometry">
            <mxRectangle width="24" height="11" as="alternateBounds" />
          </mxGeometry>
        </mxCell>
        <mxCell id="0qVfjFNWCCE-ld6SsN1t-54" value="" style="edgeStyle=orthogonalEdgeStyle;rounded=0;orthogonalLoop=1;jettySize=auto;html=1;" edge="1" parent="1" source="0qVfjFNWCCE-ld6SsN1t-51" target="0qVfjFNWCCE-ld6SsN1t-53">
          <mxGeometry relative="1" as="geometry" />
        </mxCell>
        <mxCell id="0qVfjFNWCCE-ld6SsN1t-51" value="&lt;br&gt;&lt;div style=&quot;color: #bfbdb6;background-color: #0b0e14;font-family: Consolas, &#39;Courier New&#39;, monospace;font-weight: normal;font-size: 14px;line-height: 19px;white-space: pre;&quot;&gt;&lt;div&gt;&lt;span style=&quot;color: #aad94c;&quot;&gt;id_name,&lt;/span&gt;&lt;/div&gt;&lt;div&gt;&lt;span style=&quot;color: #aad94c;&quot;&gt;name,&lt;/span&gt;&lt;/div&gt;&lt;div&gt;&lt;span style=&quot;color: #aad94c;&quot;&gt;link,&lt;/span&gt;&lt;/div&gt;&lt;div&gt;&lt;span style=&quot;color: #aad94c;&quot;&gt;description,&lt;/span&gt;&lt;/div&gt;&lt;div&gt;&lt;span style=&quot;color: #aad94c;&quot;&gt;platform,&lt;/span&gt;&lt;/div&gt;&lt;div&gt;&lt;span style=&quot;color: #aad94c;&quot;&gt;update_date&lt;/span&gt;&lt;/div&gt;&lt;/div&gt;&lt;div&gt;&lt;br/&gt;&lt;/div&gt;" style="whiteSpace=wrap;html=1;fontSize=16;startSize=30;" vertex="1" parent="1">
          <mxGeometry x="1191.5" y="390" width="125" height="146" as="geometry" />
        </mxCell>
        <mxCell id="0qVfjFNWCCE-ld6SsN1t-56" value="" style="edgeStyle=orthogonalEdgeStyle;rounded=0;orthogonalLoop=1;jettySize=auto;html=1;" edge="1" parent="1" source="0qVfjFNWCCE-ld6SsN1t-53" target="0qVfjFNWCCE-ld6SsN1t-55">
          <mxGeometry relative="1" as="geometry" />
        </mxCell>
        <mxCell id="0qVfjFNWCCE-ld6SsN1t-53" value="&#xa;&lt;div style=&quot;color: #bfbdb6;background-color: #0b0e14;font-family: Consolas, &#39;Courier New&#39;, monospace;font-weight: normal;font-size: 14px;line-height: 19px;white-space: pre;&quot;&gt;&lt;div&gt;&lt;span style=&quot;color: #ffb454;&quot;&gt;update_insert_readme&lt;/span&gt;&lt;/div&gt;&lt;/div&gt;&#xa;&#xa;" style="whiteSpace=wrap;html=1;fontSize=16;startSize=30;" vertex="1" parent="1">
          <mxGeometry x="989" y="433" width="120" height="60" as="geometry" />
        </mxCell>
        <mxCell id="0qVfjFNWCCE-ld6SsN1t-58" value="" style="edgeStyle=orthogonalEdgeStyle;rounded=0;orthogonalLoop=1;jettySize=auto;html=1;" edge="1" parent="1" source="0qVfjFNWCCE-ld6SsN1t-55" target="0qVfjFNWCCE-ld6SsN1t-57">
          <mxGeometry relative="1" as="geometry" />
        </mxCell>
        <mxCell id="0qVfjFNWCCE-ld6SsN1t-55" value="&#xa;&lt;div style=&quot;color: #bfbdb6;background-color: #0b0e14;font-family: Consolas, &#39;Courier New&#39;, monospace;font-weight: normal;font-size: 14px;line-height: 19px;white-space: pre;&quot;&gt;&lt;div&gt;&lt;span style=&quot;color: #ffb454;&quot;&gt;save_into_database&lt;/span&gt;&lt;/div&gt;&lt;/div&gt;&#xa;&#xa;" style="whiteSpace=wrap;html=1;fontSize=16;startSize=30;fillColor=#d5e8d4;strokeColor=#82b366;" vertex="1" parent="1">
          <mxGeometry x="789" y="433" width="120" height="60" as="geometry" />
        </mxCell>
        <mxCell id="0qVfjFNWCCE-ld6SsN1t-60" value="" style="edgeStyle=orthogonalEdgeStyle;rounded=0;orthogonalLoop=1;jettySize=auto;html=1;" edge="1" parent="1" source="0qVfjFNWCCE-ld6SsN1t-57" target="0qVfjFNWCCE-ld6SsN1t-59">
          <mxGeometry relative="1" as="geometry" />
        </mxCell>
        <mxCell id="0qVfjFNWCCE-ld6SsN1t-57" value="&#xa;&lt;div style=&quot;color: #bfbdb6;background-color: #0b0e14;font-family: Consolas, &#39;Courier New&#39;, monospace;font-weight: normal;font-size: 14px;line-height: 19px;white-space: pre;&quot;&gt;&lt;div&gt;&lt;span style=&quot;color: #ffb454;&quot;&gt;extract_save_notebooks&lt;/span&gt;&lt;/div&gt;&lt;/div&gt;&#xa;&#xa;" style="whiteSpace=wrap;html=1;fontSize=16;startSize=30;" vertex="1" parent="1">
          <mxGeometry x="589" y="433" width="120" height="60" as="geometry" />
        </mxCell>
        <mxCell id="0qVfjFNWCCE-ld6SsN1t-68" style="edgeStyle=orthogonalEdgeStyle;rounded=0;orthogonalLoop=1;jettySize=auto;html=1;exitX=0;exitY=0.5;exitDx=0;exitDy=0;entryX=1;entryY=0.5;entryDx=0;entryDy=0;" edge="1" parent="1" source="0qVfjFNWCCE-ld6SsN1t-59" target="0qVfjFNWCCE-ld6SsN1t-67">
          <mxGeometry relative="1" as="geometry" />
        </mxCell>
        <mxCell id="0qVfjFNWCCE-ld6SsN1t-59" value="&#xa;&lt;div style=&quot;color: #bfbdb6;background-color: #0b0e14;font-family: Consolas, &#39;Courier New&#39;, monospace;font-weight: normal;font-size: 14px;line-height: 19px;white-space: pre;&quot;&gt;&lt;div&gt;&lt;span style=&quot;color: #ffb454;&quot;&gt;extract_save_notebooks&lt;/span&gt;&lt;/div&gt;&lt;/div&gt;&#xa;&#xa;" style="whiteSpace=wrap;html=1;fontSize=16;startSize=30;" vertex="1" parent="1">
          <mxGeometry x="389" y="433" width="120" height="60" as="geometry" />
        </mxCell>
        <mxCell id="0qVfjFNWCCE-ld6SsN1t-67" value="Main" style="shape=offPageConnector;whiteSpace=wrap;html=1;" vertex="1" parent="1">
          <mxGeometry x="19" y="423" width="80" height="80" as="geometry" />
        </mxCell>
        <mxCell id="0qVfjFNWCCE-ld6SsN1t-77" value="" style="edgeStyle=orthogonalEdgeStyle;rounded=0;orthogonalLoop=1;jettySize=auto;html=1;" edge="1" parent="1" source="0qVfjFNWCCE-ld6SsN1t-69" target="0qVfjFNWCCE-ld6SsN1t-76">
          <mxGeometry relative="1" as="geometry" />
        </mxCell>
        <mxCell id="0qVfjFNWCCE-ld6SsN1t-69" value="&lt;br&gt;&lt;div style=&quot;color: #bfbdb6;background-color: #0b0e14;font-family: Consolas, &#39;Courier New&#39;, monospace;font-weight: normal;font-size: 14px;line-height: 19px;white-space: pre;&quot;&gt;&lt;div&gt;&lt;span style=&quot;color: #aad94c;&quot;&gt;prim,&lt;/span&gt;&lt;/div&gt;&lt;div&gt;&lt;span style=&quot;color: #aad94c;&quot;&gt;demo_type,&lt;/span&gt;&lt;/div&gt;&lt;div&gt;&lt;span style=&quot;color: #aad94c;&quot;&gt;demo_description,&lt;/span&gt;&lt;/div&gt;&lt;div&gt;&lt;span style=&quot;color: #aad94c;&quot;&gt;demo_link,&lt;/span&gt;&lt;/div&gt;&lt;div&gt;&lt;span style=&quot;color: #aad94c;&quot;&gt;demo_team,&lt;/span&gt;&lt;/div&gt;&lt;div&gt;&lt;span style=&quot;color: #aad94c;&quot;&gt;usage_requirements,&lt;/span&gt;&lt;/div&gt;&lt;div&gt;&lt;span style=&quot;color: #aad94c;&quot;&gt;tech,&lt;/span&gt;&lt;/div&gt;&lt;div&gt;&lt;span style=&quot;color: #aad94c;&quot;&gt;start_date,&lt;/span&gt;&lt;/div&gt;&lt;div&gt;&lt;span style=&quot;color: #aad94c;&quot;&gt;status&lt;/span&gt;&lt;/div&gt;&lt;/div&gt;&lt;div&gt;&lt;br/&gt;&lt;/div&gt;" style="whiteSpace=wrap;html=1;fontSize=16;startSize=30;" vertex="1" parent="1">
          <mxGeometry x="1153" y="150" width="163.5" height="200" as="geometry" />
        </mxCell>
        <mxCell id="0qVfjFNWCCE-ld6SsN1t-79" value="" style="edgeStyle=orthogonalEdgeStyle;rounded=0;orthogonalLoop=1;jettySize=auto;html=1;" edge="1" parent="1" source="0qVfjFNWCCE-ld6SsN1t-76" target="0qVfjFNWCCE-ld6SsN1t-78">
          <mxGeometry relative="1" as="geometry" />
        </mxCell>
        <mxCell id="0qVfjFNWCCE-ld6SsN1t-76" value="&#xa;&lt;div style=&quot;color: #bfbdb6;background-color: #0b0e14;font-family: Consolas, &#39;Courier New&#39;, monospace;font-weight: normal;font-size: 14px;line-height: 19px;white-space: pre;&quot;&gt;&lt;div&gt;&lt;span style=&quot;color: #ffb454;&quot;&gt;update_insert_smartsheet&lt;/span&gt;&lt;/div&gt;&lt;/div&gt;&#xa;&#xa;" style="whiteSpace=wrap;html=1;fontSize=16;startSize=30;" vertex="1" parent="1">
          <mxGeometry x="970" y="220" width="120" height="60" as="geometry" />
        </mxCell>
        <mxCell id="0qVfjFNWCCE-ld6SsN1t-81" value="" style="edgeStyle=orthogonalEdgeStyle;rounded=0;orthogonalLoop=1;jettySize=auto;html=1;" edge="1" parent="1" source="0qVfjFNWCCE-ld6SsN1t-78" target="0qVfjFNWCCE-ld6SsN1t-80">
          <mxGeometry relative="1" as="geometry" />
        </mxCell>
        <mxCell id="0qVfjFNWCCE-ld6SsN1t-78" value="&#xa;&lt;div style=&quot;color: #bfbdb6;background-color: #0b0e14;font-family: Consolas, &#39;Courier New&#39;, monospace;font-weight: normal;font-size: 14px;line-height: 19px;white-space: pre;&quot;&gt;&lt;div&gt;&lt;span style=&quot;color: #ffb454;&quot;&gt;save_data_to_table&lt;/span&gt;&lt;/div&gt;&lt;/div&gt;&#xa;&#xa;" style="whiteSpace=wrap;html=1;fontSize=16;startSize=30;fillColor=#d5e8d4;strokeColor=#82b366;" vertex="1" parent="1">
          <mxGeometry x="770" y="220" width="120" height="60" as="geometry" />
        </mxCell>
        <mxCell id="0qVfjFNWCCE-ld6SsN1t-83" value="" style="edgeStyle=orthogonalEdgeStyle;rounded=0;orthogonalLoop=1;jettySize=auto;html=1;" edge="1" parent="1" source="0qVfjFNWCCE-ld6SsN1t-80" target="0qVfjFNWCCE-ld6SsN1t-82">
          <mxGeometry relative="1" as="geometry" />
        </mxCell>
        <mxCell id="0qVfjFNWCCE-ld6SsN1t-80" value="&#xa;&lt;div style=&quot;color: #bfbdb6;background-color: #0b0e14;font-family: Consolas, &#39;Courier New&#39;, monospace;font-weight: normal;font-size: 14px;line-height: 19px;white-space: pre;&quot;&gt;&lt;div&gt;&lt;span style=&quot;color: #ffb454;&quot;&gt;save_all_to_table&lt;/span&gt;&lt;/div&gt;&lt;/div&gt;&#xa;&#xa;" style="whiteSpace=wrap;html=1;fontSize=16;startSize=30;" vertex="1" parent="1">
          <mxGeometry x="570" y="220" width="120" height="60" as="geometry" />
        </mxCell>
        <mxCell id="0qVfjFNWCCE-ld6SsN1t-84" style="edgeStyle=orthogonalEdgeStyle;rounded=0;orthogonalLoop=1;jettySize=auto;html=1;exitX=0;exitY=0.5;exitDx=0;exitDy=0;entryX=0.5;entryY=0;entryDx=0;entryDy=0;" edge="1" parent="1" source="0qVfjFNWCCE-ld6SsN1t-82" target="0qVfjFNWCCE-ld6SsN1t-67">
          <mxGeometry relative="1" as="geometry" />
        </mxCell>
        <mxCell id="0qVfjFNWCCE-ld6SsN1t-82" value="&#xa;&lt;div style=&quot;color: #bfbdb6;background-color: #0b0e14;font-family: Consolas, &#39;Courier New&#39;, monospace;font-weight: normal;font-size: 14px;line-height: 19px;white-space: pre;&quot;&gt;&lt;div&gt;&lt;span style=&quot;color: #ffb454;&quot;&gt;process_smartsheet&lt;/span&gt;&lt;/div&gt;&lt;/div&gt;&#xa;&#xa;" style="whiteSpace=wrap;html=1;fontSize=16;startSize=30;" vertex="1" parent="1">
          <mxGeometry x="370" y="220" width="120" height="60" as="geometry" />
        </mxCell>
        <mxCell id="0qVfjFNWCCE-ld6SsN1t-96" value="" style="edgeStyle=orthogonalEdgeStyle;rounded=0;orthogonalLoop=1;jettySize=auto;html=1;" edge="1" parent="1" source="0qVfjFNWCCE-ld6SsN1t-93" target="0qVfjFNWCCE-ld6SsN1t-95">
          <mxGeometry relative="1" as="geometry" />
        </mxCell>
        <mxCell id="0qVfjFNWCCE-ld6SsN1t-93" value="&lt;br&gt;&lt;div style=&quot;color: #bfbdb6;background-color: #0b0e14;font-family: Consolas, &#39;Courier New&#39;, monospace;font-weight: normal;font-size: 14px;line-height: 19px;white-space: pre;&quot;&gt;&lt;div&gt;&lt;span style=&quot;color: #aad94c;&quot;&gt;id_name,&lt;br/&gt;title,&lt;/span&gt;&lt;/div&gt;&lt;div&gt;&lt;span style=&quot;color: #aad94c;&quot;&gt;path,&lt;/span&gt;&lt;/div&gt;&lt;div&gt;&lt;span style=&quot;color: #aad94c;&quot;&gt;imageUrl,&lt;/span&gt;&lt;/div&gt;&lt;div&gt;&lt;span style=&quot;color: #aad94c;&quot;&gt;createDate,&lt;/span&gt;&lt;/div&gt;&lt;div&gt;&lt;span style=&quot;color: #aad94c;&quot;&gt;modifiedDate,&lt;/span&gt;&lt;/div&gt;&lt;div&gt;&lt;span style=&quot;color: #aad94c;&quot;&gt;link&lt;/span&gt;&lt;/div&gt;&lt;/div&gt;&lt;div&gt;&lt;br/&gt;&lt;/div&gt;" style="whiteSpace=wrap;html=1;fontSize=16;startSize=30;" vertex="1" parent="1">
          <mxGeometry x="1190" y="571" width="126.5" height="150" as="geometry" />
        </mxCell>
        <mxCell id="0qVfjFNWCCE-ld6SsN1t-98" value="" style="edgeStyle=orthogonalEdgeStyle;rounded=0;orthogonalLoop=1;jettySize=auto;html=1;" edge="1" parent="1" source="0qVfjFNWCCE-ld6SsN1t-95" target="0qVfjFNWCCE-ld6SsN1t-97">
          <mxGeometry relative="1" as="geometry" />
        </mxCell>
        <mxCell id="0qVfjFNWCCE-ld6SsN1t-95" value="&#xa;&lt;div style=&quot;color: #bfbdb6;background-color: #0b0e14;font-family: Consolas, &#39;Courier New&#39;, monospace;font-weight: normal;font-size: 14px;line-height: 19px;white-space: pre;&quot;&gt;&lt;div&gt;&lt;span style=&quot;color: #ffb454;&quot;&gt;update_premap_with_map&lt;/span&gt;&lt;/div&gt;&lt;/div&gt;&#xa;&#xa;" style="whiteSpace=wrap;html=1;fontSize=16;startSize=30;" vertex="1" parent="1">
          <mxGeometry x="986.75" y="616" width="120" height="60" as="geometry" />
        </mxCell>
        <mxCell id="0qVfjFNWCCE-ld6SsN1t-100" value="" style="edgeStyle=orthogonalEdgeStyle;rounded=0;orthogonalLoop=1;jettySize=auto;html=1;" edge="1" parent="1" source="0qVfjFNWCCE-ld6SsN1t-97" target="0qVfjFNWCCE-ld6SsN1t-99">
          <mxGeometry relative="1" as="geometry" />
        </mxCell>
        <mxCell id="0qVfjFNWCCE-ld6SsN1t-97" value="&#xa;&lt;div style=&quot;color: #bfbdb6;background-color: #0b0e14;font-family: Consolas, &#39;Courier New&#39;, monospace;font-weight: normal;font-size: 14px;line-height: 19px;white-space: pre;&quot;&gt;&lt;div&gt;&lt;span style=&quot;color: #ffb454;&quot;&gt;populate_premap_with_map&lt;/span&gt;&lt;/div&gt;&lt;/div&gt;&#xa;&#xa;" style="whiteSpace=wrap;html=1;fontSize=16;startSize=30;fillColor=#d5e8d4;strokeColor=#82b366;" vertex="1" parent="1">
          <mxGeometry x="786.75" y="616" width="120" height="60" as="geometry" />
        </mxCell>
        <mxCell id="0qVfjFNWCCE-ld6SsN1t-101" style="edgeStyle=orthogonalEdgeStyle;rounded=0;orthogonalLoop=1;jettySize=auto;html=1;exitX=0;exitY=0.5;exitDx=0;exitDy=0;entryX=0.5;entryY=1;entryDx=0;entryDy=0;" edge="1" parent="1" source="0qVfjFNWCCE-ld6SsN1t-99" target="0qVfjFNWCCE-ld6SsN1t-67">
          <mxGeometry relative="1" as="geometry" />
        </mxCell>
        <mxCell id="0qVfjFNWCCE-ld6SsN1t-99" value="&#xa;&lt;div style=&quot;color: #bfbdb6;background-color: #0b0e14;font-family: Consolas, &#39;Courier New&#39;, monospace;font-weight: normal;font-size: 14px;line-height: 19px;white-space: pre;&quot;&gt;&lt;div&gt;&lt;span style=&quot;color: #ffb454;&quot;&gt;process_ai_tasks&lt;/span&gt;&lt;/div&gt;&lt;/div&gt;&#xa;&#xa;" style="whiteSpace=wrap;html=1;fontSize=16;startSize=30;" vertex="1" parent="1">
          <mxGeometry x="586.75" y="616" width="120" height="60" as="geometry" />
        </mxCell>
      </root>
    </mxGraphModel>
  </diagram>
</mxfile>
